<svg xmlns="http://www.w3.org/2000/svg" width="71.555" height="71.555" viewBox="0 0 71.555 71.555">
  <g id="Group_2656" data-name="Group 2656" transform="translate(1 1)">
    <path id="Path_129" data-name="Path 129" d="M456.574,238.244h0a6.534,6.534,0,0,1-6.534-6.534V217.067a6.534,6.534,0,1,1,13.067,0V231.71A6.534,6.534,0,0,1,456.574,238.244Z" transform="translate(-404.329 -189.611)" fill="none" stroke="#c9a989" stroke-linecap="round" stroke-linejoin="round" stroke-width="2"/>
    <path id="Path_130" data-name="Path 130" d="M287.383,329.958h0a6.534,6.534,0,0,1-6.533-6.534v-4.055a6.533,6.533,0,0,1,13.067,0v4.055A6.534,6.534,0,0,1,287.383,329.958Z" transform="translate(-252.65 -281.326)" fill="none" stroke="#c9a989" stroke-linecap="round" stroke-linejoin="round" stroke-width="2"/>
    <path id="Path_131" data-name="Path 131" d="M280.85,230.353V216.648a6.115,6.115,0,0,1,12.229,0" transform="translate(-252.65 -189.611)" fill="none" stroke="#c9a989" stroke-linecap="round" stroke-linejoin="round" stroke-width="2"/>
    <path id="Path_132" data-name="Path 132" d="M112.52,216.9a6.367,6.367,0,0,1,12.734,0v.294a6.367,6.367,0,0,1-6.367,6.367,6.367,6.367,0,0,1,6.367,6.367v1.949a6.367,6.367,0,1,1-12.734,0v-.795" transform="translate(-101.743 -189.611)" fill="none" stroke="#c9a989" stroke-linecap="round" stroke-linejoin="round" stroke-width="2"/>
    <path id="Path_133" data-name="Path 133" d="M620.36,165.74a3.466,3.466,0,1,1-3.466-3.466A3.466,3.466,0,0,1,620.36,165.74Z" transform="translate(-550.805 -146.347)" fill="none" stroke="#c9a989" stroke-linecap="round" stroke-linejoin="round" stroke-width="2"/>
    <path id="Path_134" data-name="Path 134" d="M69.448,20.388A34.778,34.778,0,1,0,43.177,77.955" transform="translate(-8.4 -8.4)" fill="none" stroke="#c9a989" stroke-linecap="round" stroke-linejoin="round" stroke-width="2"/>
    <path id="Path_135" data-name="Path 135" d="M407.1,304.566a34.819,34.819,0,0,0,27.23-42.717" transform="translate(-365.833 -235.616)" fill="none" stroke="#c9a989" stroke-linecap="round" stroke-linejoin="round" stroke-width="2" stroke-dasharray="2 5"/>
  </g>
</svg>
