<svg id="Group_2671" data-name="Group 2671" xmlns="http://www.w3.org/2000/svg" xmlns:xlink="http://www.w3.org/1999/xlink" width="55.575" height="72.467" viewBox="0 0 55.575 72.467">
  <defs>
    <clipPath id="clip-path">
      <rect id="Rectangle_2754" data-name="Rectangle 2754" width="55.575" height="72.467" fill="#c9a989"/>
    </clipPath>
  </defs>
  <g id="Group_2650" data-name="Group 2650" clip-path="url(#clip-path)">
    <path id="Path_127" data-name="Path 127" d="M47.782,43.959a26.535,26.535,0,1,0-39.988,0L0,65.711l12.008-3.819,6.85,10.576L25.834,53q.968.071,1.953.072T29.741,53l6.976,19.47,6.85-10.576,12.008,3.819ZM18.4,68.5,12.76,59.793,2.876,62.937l6.28-17.529A26.477,26.477,0,0,0,24.023,52.8Zm9.389-17.2A24.763,24.763,0,1,1,52.551,26.534,24.791,24.791,0,0,1,27.788,51.3m15.028,8.5L37.177,68.5,31.553,52.8a26.477,26.477,0,0,0,14.866-7.392L52.7,62.937ZM27.788,5.981A20.553,20.553,0,1,0,48.341,26.534,20.576,20.576,0,0,0,27.788,5.981m0,39.335A18.782,18.782,0,1,1,46.57,26.534,18.8,18.8,0,0,1,27.788,45.316m10.925-23.4L25.68,34.442l-7.194-5.706a.886.886,0,1,0-1.1,1.388l7.8,6.187a.887.887,0,0,0,1.164-.055L39.941,23.191a.886.886,0,0,0-1.228-1.277" fill="#c9a989"/>
  </g>
</svg>
