<svg xmlns="http://www.w3.org/2000/svg" width="73.277" height="73.541" viewBox="0 0 73.277 73.541">
  <g id="Group_2675" data-name="Group 2675" transform="translate(0.552 0.56)">
    <g id="Group_2682" data-name="Group 2682">
      <path id="Path_146" data-name="Path 146" d="M74.313,36.394C45.593,14.35,12.842,47.1,34.887,75.82a.222.222,0,0,0,.041.041C63.649,97.907,96.4,65.155,74.353,36.435A.222.222,0,0,0,74.313,36.394Z" transform="translate(-18.683 -19.701)" fill="none" stroke="#c9a989" stroke-miterlimit="10" stroke-width="2"/>
      <path id="Path_147" data-name="Path 147" d="M88.972,70.341c0-15.809-18.312-27.421-34.838-14.74a.216.216,0,0,0-.041.041C41.415,72.169,53.027,90.478,68.835,90.478" transform="translate(-32.897 -33.914)" fill="none" stroke="#c9a989" stroke-miterlimit="10" stroke-width="2"/>
      <path id="Path_148" data-name="Path 148" d="M70.242,84.894c0,10.318,11.948,17.9,22.735,9.631a.223.223,0,0,0,.042-.042c8.267-10.787.688-22.735-9.63-22.735" transform="translate(-47.45 -48.467)" fill="none" stroke="#c9a989" stroke-miterlimit="10" stroke-width="2"/>
      <path id="Path_149" data-name="Path 149" d="M103.854,105.318c4.154-5.447-2.042-11.643-7.489-7.487a.237.237,0,0,0-.043.043c-4.152,5.447,2.042,11.64,7.488,7.488A.23.23,0,0,0,103.854,105.318Z" transform="translate(-64.15 -65.168)" fill="none" stroke="#c9a989" stroke-miterlimit="10" stroke-width="2"/>
      <path id="Path_150" data-name="Path 150" d="M72.726,33.931a2.68,2.68,0,0,0-1.191-2.021l-.859-.573c-.227-.349-.92-1.414-1.031-1.579-.088-.169-.4-1.111-.652-1.924V25.757a7.072,7.072,0,0,0-1.675-4.3,13.883,13.883,0,0,1-2.274-3.58l1-2.6a1.875,1.875,0,0,0-1.77-2.54c-1.879.027-3.178.024-3.6-.006a31.918,31.918,0,0,1-3.21-2.935,20.289,20.289,0,0,0-2.945-2.656c-.873-.436-2.017,0-2.853.317h0a.213.213,0,0,1-.277-.131c-.463-1.334-1.834-2.814-6.645-3.592a40.96,40.96,0,0,0-12.671-.1.973.973,0,0,1-.63-.112L28.408,1.8a2.376,2.376,0,0,0-2.51.116,2.349,2.349,0,0,0-.663.693L23.193,5.88a4.966,4.966,0,0,1-1.224,1.144l-.1.064a13.388,13.388,0,0,1-1.237.777.2.2,0,0,1-.085.021l-.236.01a14.95,14.95,0,0,1-2.692.008,3.943,3.943,0,0,1-.512-.19,1.831,1.831,0,0,0-2.293.705l-2.094,3.339a.215.215,0,0,1-.056.06L10.2,13.588a4.405,4.405,0,0,0-1.634,2.275L7.136,20.531a.656.656,0,0,0-.022.1c-.347,2.571-.9,6.374-1.049,6.848a.169.169,0,0,1-.011.028c-.225.46-1.038,2.625-1.258,3.3a.208.208,0,0,1-.048.081c-.214.225-.891.837-2.415,2.066a2.242,2.242,0,0,0-.7.976,2.213,2.213,0,0,0,.576,2.4c.744.687,1.709,1.57,2.084,1.875a1.079,1.079,0,0,1,.437.516c.063.13.143.3.275.529.25.443.26.46.059,2.364-.033.313-.071.671-.113,1.084C4.7,45.211,6.2,49.247,6.837,50.97c.1.257.194.522.211.587l.007,0a42.91,42.91,0,0,0,2.3,4.435,2.74,2.74,0,0,1,.231,1.638c-.012.157-.021.3-.021.418a5.347,5.347,0,0,1-.258.885,5.358,5.358,0,0,0-.395,1.66.76.76,0,0,1-.21.446,1.258,1.258,0,0,0-.315,1,3.9,3.9,0,0,1-.011.615,4.745,4.745,0,0,0,.007,1c.155.93,2.1,1.652,2.565,1.652.027,0,.3.014,1.858.3a1.142,1.142,0,0,1,.719.453l1.961,2.7a.649.649,0,0,0,.232.2c1.089.544,3.166,1.038,4.047-.563a.372.372,0,0,1,.252-.189c.287-.079,1.2-.129,3.427,1.152l.05.029a15.421,15.421,0,0,0,3.093.89,12.424,12.424,0,0,0,3.005.085,5.355,5.355,0,0,0,1.521-.412,21.458,21.458,0,0,1,2.235-.723,20.79,20.79,0,0,1,5.709-.647c1.036,0,1.13.125,1.382.46a4.281,4.281,0,0,0,.564.637,10.445,10.445,0,0,1,1.534,1.592c.352.528,1.433.966,3.305,1.591a2.059,2.059,0,0,0,.639.135.807.807,0,0,0,.512-.167.984.984,0,0,0,.293-.935,2.781,2.781,0,0,1-.006-.476c.027-.294.041-.446.055-.539a.21.21,0,0,1,.147-.17c.166-.051.4-.11.584-.157a9.377,9.377,0,0,0,2.074-.708,15.349,15.349,0,0,1,1.407-.658,7.473,7.473,0,0,0,.84-.392,6.777,6.777,0,0,1,1.424-.378c.353-.071.718-.145,1.029-.229,1.833-.5,2.006-.7,2.089-.79a10.15,10.15,0,0,0,.918-2.419.213.213,0,0,1,.041-.072,12.168,12.168,0,0,1,2.163-1.839c.371-.217.453-.214.579-.208a2,2,0,0,0,.788-.11,1.716,1.716,0,0,1,.933,0,.643.643,0,0,0,.7-.208,7.3,7.3,0,0,0,.742-1.229,4.343,4.343,0,0,0,.44-2.146V57.2a3.721,3.721,0,0,1,.23-1.017l1.662-2.457,1.71-2.454a.651.651,0,0,0,.055-.1,19.375,19.375,0,0,0,1.084-3.472,84.014,84.014,0,0,0,.865-9.159,1.371,1.371,0,0,1,.434-.927l1.606-1.5A2.679,2.679,0,0,0,72.726,33.931Z" transform="translate(-1.013 -1.013)" fill="none" stroke="#c9a989" stroke-miterlimit="10" stroke-width="2"/>
    </g>
  </g>
</svg>
