<svg xmlns="http://www.w3.org/2000/svg" width="77.615" height="73.979" viewBox="0 0 77.615 73.979">
  <g id="Group_2674" data-name="Group 2674" transform="translate(0.444 0.291)">
    <g id="Group_2661" data-name="Group 2661" transform="translate(0.752 0.472)">
      <path id="Path_142" data-name="Path 142" d="M9.814,117.183c4.735-8.317,11.028-8.664,11.028-8.664l20.728.116a3.777,3.777,0,0,1,2.368,3.465,3.7,3.7,0,0,1-2.482,3.408l-12.879.058c-.868.52,0,1.1,0,1.1s26.114.071,27.822-.567c2.483-.929,9.909-9.269,9.909-9.269l.044.042a3.628,3.628,0,1,1,5.088,5.161l-11.316,11.5c-2.981,3.219-7.905,2.909-7.905,2.909H34.15c-11.076,0-12.082,7.721-12.082,7.721H1.6Z" transform="translate(-1.595 -61.695)" fill="none" stroke="#c9a989" stroke-miterlimit="10" stroke-width="1.5"/>
      <path id="Path_143" data-name="Path 143" d="M97.467,28.488s-4.711-16.906,10.6-24.305c0,0,10.207-5.358,24.367-2.169,0,0-.383,22.58-16.075,27.939,0,0-8.472,3.892-16.509.958,0,0,3.592-11.373,21.516-19.81C121.363,11.1,105.632,13.307,97.467,28.488Z" transform="translate(-56.773 -1)" fill="none" stroke="#c9a989" stroke-miterlimit="10" stroke-width="1.5"/>
      <path id="Path_144" data-name="Path 144" d="M63.093,41.327s3-10.77-6.751-15.484a24.281,24.281,0,0,0-15.523-1.381s.245,14.385,10.24,17.8c0,0,5.4,2.479,10.518.61,0,0-2.29-7.245-13.707-12.62A22.17,22.17,0,0,1,63.093,41.327Z" transform="translate(-24.332 -14.226)" fill="none" stroke="#c9a989" stroke-miterlimit="10" stroke-width="1.5"/>
      <path id="Path_145" data-name="Path 145" d="M74.328,79.155l-10.172,10.3H91.584l-10.173-10.3A4.977,4.977,0,0,0,74.328,79.155Z" transform="translate(-37.86 -45.447)" fill="none" stroke="#c9a989" stroke-miterlimit="10" stroke-width="1.5"/>
    </g>
  </g>
</svg>
