<svg id="Group_2672" data-name="Group 2672" xmlns="http://www.w3.org/2000/svg" xmlns:xlink="http://www.w3.org/1999/xlink" width="76" height="75.223" viewBox="0 0 76 75.223">
  <defs>
    <clipPath id="clip-path">
      <rect id="Rectangle_2755" data-name="Rectangle 2755" width="76" height="75.223" fill="#c9a989"/>
    </clipPath>
  </defs>
  <g id="Group_2652" data-name="Group 2652" clip-path="url(#clip-path)">
    <path id="Path_128" data-name="Path 128" d="M51.772,73.865,14.729,36.821a1.176,1.176,0,0,1-.342-.838l.151-14.057L.042,14.44c-.277-.143.9-2.159,1.07-2.072l13.453,6.948.047-4.328a1.172,1.172,0,0,1,1.153-1.153l7.645-.082L18.973.888c-.1-.294,2.044-1.229,2.206-.757l4.689,13.6,10.905-.117a1.161,1.161,0,0,1,.826.342L74.643,50.995a4.636,4.636,0,0,1,0,6.556L58.328,73.865a4.636,4.636,0,0,1-6.556,0M70.26,49.912,50.69,69.483l2.733,2.733a2.3,2.3,0,0,0,3.257,0L72.993,55.9a2.3,2.3,0,0,0,0-3.257ZM36.3,15.947l-19.363.208-.047,4.359L24.607,24.5l.25-.284c.109-.124.2-.225.295-.317a6.613,6.613,0,1,1-1.937,4.677,6.641,6.641,0,0,1,.2-1.642l.1-.374-6.657-3.438-.133,12.393L49.04,67.833,68.611,48.263Zm-8.979,9.163-.636.462,3.052,1.576a1.166,1.166,0,0,1-.537,2.2,1.154,1.154,0,0,1-.534-.13l-3.078-1.59-.032.759c0,.063,0,.125,0,.188a4.28,4.28,0,1,0,1.769-3.467" transform="translate(0 0)" fill="#c9a989"/>
  </g>
</svg>
