<svg id="Group_2691" data-name="Group 2691" xmlns="http://www.w3.org/2000/svg" width="16.69" height="16.773" viewBox="0 0 16.69 16.773">
  <path id="Path_11672" data-name="Path 11672" d="M2747.167,1799.79a14.35,14.35,0,0,1-8.068-3.161,14.154,14.154,0,0,1-5.012-6.355,12.218,12.218,0,0,1-.614-3.561,3.836,3.836,0,0,1,1.673-3.247,2.7,2.7,0,0,1,1.326-.439,1.243,1.243,0,0,1,1.411,1.016c.329,1.05.794,2.057,1.126,3.106a1.644,1.644,0,0,1-.157.983,1.759,1.759,0,0,1-.512.641,1.512,1.512,0,0,0-.256,2.127,9.957,9.957,0,0,0,5.333,4.651.763.763,0,0,0,.642-.153c.536-.468,1.044-.971,1.531-1.49a.6.6,0,0,1,.888-.091c1.057.648,2.147,1.242,3.208,1.883a.942.942,0,0,1,.451.534,3.48,3.48,0,0,1-2.342,3.458A5.349,5.349,0,0,1,2747.167,1799.79Z" transform="translate(-2733.469 -1783.017)" fill="#fff"/>
</svg>
