<svg id="Group_2690" data-name="Group 2690" xmlns="http://www.w3.org/2000/svg" xmlns:xlink="http://www.w3.org/1999/xlink" width="38.84" height="38.845" viewBox="0 0 38.84 38.845">
  <defs>
    <clipPath id="clip-path">
      <rect id="Rectangle_2797" data-name="Rectangle 2797" width="38.84" height="38.845" fill="#fff"/>
    </clipPath>
  </defs>
  <g id="Group_2689" data-name="Group 2689" clip-path="url(#clip-path)">
    <path id="Path_3092" data-name="Path 3092" d="M5.455,263.874a3.679,3.679,0,0,1-1.137-.223l-1.906-.71a2.894,2.894,0,0,1-1.766-1.905l-.428-1.489c-.1-.274-.488-1.438.105-2.03l.015-.014,16-14.531a1.559,1.559,0,0,1,2.194.008l2.408,2.4a1.468,1.468,0,0,1,.008,2.12L6.383,263.538l-.015.015a1.242,1.242,0,0,1-.913.321M.93,258.135c-.129.143-.052.716.1,1.121,0,.011.008.023.012.035l.433,1.505a2.026,2.026,0,0,0,1.236,1.333l1.91.711a2.813,2.813,0,0,0,.832.168.5.5,0,0,0,.3-.064L20.31,246.913l.015-.015a.6.6,0,0,0,0-.9l-2.407-2.4a.693.693,0,0,0-.979,0l-.015.014Z" transform="translate(0 -225.029)" fill="#fff"/>
    <path id="Path_3093" data-name="Path 3093" d="M263.723,60.555a.433.433,0,0,1-.306-.739L279.3,43.952a.433.433,0,1,1,.612.612L264.029,60.428a.432.432,0,0,1-.306.127" transform="translate(-244.296 -40.664)" fill="#fff"/>
    <path id="Path_3094" data-name="Path 3094" d="M475.974,5.778a1.837,1.837,0,0,1-1.153-.718l-.089-.092-.02-.02-.094-.092a1.845,1.845,0,0,1-.719-1.143.713.713,0,0,1,.215-.521.43.43,0,0,1,.054-.046l2.529-1.81a.6.6,0,0,1,.463-.209,1.326,1.326,0,0,1,.885.49,1.286,1.286,0,0,1,.493,1.011.6.6,0,0,1-.183.348l-1.821,2.534a.428.428,0,0,1-.046.054.714.714,0,0,1-.514.215m-1.18-2.015a3.127,3.127,0,0,0,.423.469l.105.1.02.02.1.106a3.108,3.108,0,0,0,.473.424l1.728-2.4a1.571,1.571,0,0,0-.212-.25,1.654,1.654,0,0,0-.226-.194Z" transform="translate(-439.711 -1.046)" fill="#fff"/>
    <path id="Path_3095" data-name="Path 3095" d="M46.8,305.665a.433.433,0,0,1-.306-.739l13.662-13.634a.433.433,0,1,1,.612.613L47.1,305.538a.431.431,0,0,1-.306.126" transform="translate(-43.021 -270.16)" fill="#fff"/>
    <path id="Path_3096" data-name="Path 3096" d="M33.513,38.839a1.508,1.508,0,0,1-1.071-.443L18.515,24.453a.433.433,0,0,1,.612-.612L33.055,37.784a.648.648,0,0,0,.914,0l3.821-3.8a.642.642,0,0,0,0-.91l-21.3-21.323A1.8,1.8,0,0,1,16,10.1,7.643,7.643,0,0,0,6.128,1.255a.019.019,0,0,0-.013.014.019.019,0,0,0,0,.018L9.908,5.079a1.37,1.37,0,0,1,.373,1.253l-.5,2.407a1.373,1.373,0,0,1-1.09,1.069l-2.355.449A1.377,1.377,0,0,1,5.1,9.877L1.3,6.078a.021.021,0,0,0-.019-.006.02.02,0,0,0-.015.013A7.64,7.64,0,0,0,10.1,15.969a1.8,1.8,0,0,1,1.651.491l3.189,3.192a.433.433,0,1,1-.613.612l-3.189-3.192a.941.941,0,0,0-.861-.256,8.506,8.506,0,0,1-9.834-11,.879.879,0,0,1,.638-.582.893.893,0,0,1,.83.237l3.794,3.8a.512.512,0,0,0,.459.141l2.355-.449a.509.509,0,0,0,.4-.4l.5-2.407A.506.506,0,0,0,9.3,5.691L5.507,1.9a.889.889,0,0,1-.234-.831A.879.879,0,0,1,5.858.432a8.509,8.509,0,0,1,10.994,9.851.933.933,0,0,0,.254.857L38.4,32.464a1.508,1.508,0,0,1,0,2.135L34.58,38.4a1.508,1.508,0,0,1-1.067.44" transform="translate(-0.006 0)" fill="#fff"/>
    <path id="Path_3097" data-name="Path 3097" d="M444.463,445.424h0a1.633,1.633,0,1,1,1.638-1.63,1.627,1.627,0,0,1-1.638,1.63m0-2.4a.77.77,0,0,0-.771.766.769.769,0,0,0,.769.769v0a.77.77,0,0,0,.77-.766.769.769,0,0,0-.769-.769" transform="translate(-410.881 -410.26)" fill="#fff"/>
  </g>
</svg>
