<svg xmlns="http://www.w3.org/2000/svg" xmlns:xlink="http://www.w3.org/1999/xlink" width="33.958" height="50.972" viewBox="0 0 33.958 50.972">
  <defs>
    <clipPath id="clip-path">
      <rect id="Rectangle_2796" data-name="Rectangle 2796" width="33.958" height="50.972" fill="#fff"/>
    </clipPath>
  </defs>
  <g id="Group_2687" data-name="Group 2687" clip-path="url(#clip-path)">
    <path id="Path_3091" data-name="Path 3091" d="M33.879,34.9a.333.333,0,0,0-.47-.039,25.378,25.378,0,0,1-5.4,3.493l-5.434-17.4A7.911,7.911,0,0,0,17.247,7.523V5.48a1.632,1.632,0,0,0,1.334-1.634V1.668a1.668,1.668,0,1,0-3.336,0V3.846A1.771,1.771,0,0,0,16.58,5.48V7.523A7.874,7.874,0,0,0,11.194,20.8L5.75,38.264a25.349,25.349,0,0,1-5.2-3.4.333.333,0,1,0-.428.51,26.051,26.051,0,0,0,5.439,3.536l-1.836,5.88c-.033.107-.05.161,1.085,5.716a.584.584,0,0,0,1.129.062l3.23-10.221A26.718,26.718,0,0,0,15.646,41.5v1.683a1.349,1.349,0,0,0,2.669,0V41.5A26.132,26.132,0,0,0,24.6,40.4l3.218,10.163a.571.571,0,0,0,.551.4.578.578,0,0,0,.572-.468c1.136-5.556,1.118-5.61,1.085-5.717L28.214,39a26.043,26.043,0,0,0,5.626-3.627.334.334,0,0,0,.039-.47M15.913,3.846V1.668a1,1,0,0,1,2,0V3.846a1,1,0,1,1-2,0M9.741,15.407a7.226,7.226,0,1,1,7.226,7.226,7.234,7.234,0,0,1-7.226-7.226M5.4,50.059c-.4-1.974-.949-4.693-1.018-5.139l7.368-23.6a7.9,7.9,0,0,0,2.319,1.425Zm12.25-6.872c0,.262-.321.483-.667.483s-.667-.221-.667-.483v-4c0-.262.321-.483.667-.483s.667.221.667.483Zm.667-2.351v-1.65a1.349,1.349,0,0,0-2.669,0v1.65a25.463,25.463,0,0,1-6.278-1.127l5.321-16.742a7.886,7.886,0,0,0,4.372.049l5.332,16.753a26.027,26.027,0,0,1-6.079,1.067m11.05,4.085c-.069.446-.615,3.164-1.018,5.139L19.7,22.812a7.892,7.892,0,0,0,2.338-1.362Zm-1,6.052h0Zm-11.4-30.34a5.224,5.224,0,1,0-5.224-5.224,5.23,5.23,0,0,0,5.224,5.224m0-9.781a4.557,4.557,0,1,1-4.557,4.557,4.562,4.562,0,0,1,4.557-4.557" transform="translate(0)" fill="#fff"/>
  </g>
</svg>
