<svg xmlns="http://www.w3.org/2000/svg" width="7.188" height="13.686" viewBox="0 0 7.188 13.686">
  <path id="Path_2179" data-name="Path 2179" d="M4.7,7.444c-.013,2.109.011,4.167-.008,6.242H2.157V7.458H.079A12.821,12.821,0,0,1,.041,5.013H2.124c.008-.15.02-.266.02-.382,0-.532-.009-1.065,0-1.6a3.3,3.3,0,0,1,.491-1.739A2.7,2.7,0,0,1,4.855.013c.738-.041,1.483.029,2.224.052a.423.423,0,0,1,.109.042V2.253c-.32,0-.616-.007-.912,0a6.247,6.247,0,0,0-.828.056.767.767,0,0,0-.7.626A12.212,12.212,0,0,0,4.7,4.99h2.43l-.32,2.454Z" transform="translate(0)" fill="#c9a989"/>
</svg>
