<svg xmlns="http://www.w3.org/2000/svg" width="13.872" height="13.686" viewBox="0 0 13.872 13.686">
  <g id="Group_4" data-name="Group 4" transform="translate(-1005.199 -6561.724)">
    <path id="Path_2184" data-name="Path 2184" d="M1279.174,20.846c-1.037-.028-2.075-.045-3.112-.087a4.043,4.043,0,0,1-2.087-.619,3.583,3.583,0,0,1-1.653-2.787c-.059-.591-.078-1.187-.08-1.781q-.008-2.1.02-4.2a4.939,4.939,0,0,1,.347-1.881,3.49,3.49,0,0,1,2.1-1.982,5.114,5.114,0,0,1,1.645-.293c2.017-.059,4.035-.1,6.049.033A3.7,3.7,0,0,1,1285.464,9a3.953,3.953,0,0,1,.568,1.927,60.045,60.045,0,0,1,0,6.121,3.937,3.937,0,0,1-.776,2.247,3.613,3.613,0,0,1-2.04,1.327,9.311,9.311,0,0,1-2.05.194c-.664.022-1.33,0-1.994,0,0,.008,0,.016,0,.023m5.7-6.848h-.033c0-.583.016-1.167,0-1.749a13.047,13.047,0,0,0-.128-1.741,2.2,2.2,0,0,0-1.736-1.89,6.764,6.764,0,0,0-1.487-.177c-1.574-.022-3.148-.016-4.722-.006a4.727,4.727,0,0,0-1.718.269,2.064,2.064,0,0,0-1.312,1.357,4.445,4.445,0,0,0-.208,1.2q-.037,2.641-.009,5.282a5.193,5.193,0,0,0,.175,1.241,2.164,2.164,0,0,0,1.537,1.578,5.305,5.305,0,0,0,1.59.2c1.539.014,3.079.02,4.618,0a7.355,7.355,0,0,0,1.423-.144,2.237,2.237,0,0,0,1.835-1.8,3.425,3.425,0,0,0,.093-.657c.036-.99.059-1.981.087-2.972" transform="translate(-267.041 6554.563)" fill="#c9a989"/>
    <path id="Path_2185" data-name="Path 2185" d="M1339.474,77.24a3.509,3.509,0,1,1,3.549-3.566,3.544,3.544,0,0,1-3.549,3.566m-2.317-3.517a2.309,2.309,0,1,0,2.251-2.251,2.243,2.243,0,0,0-2.251,2.251" transform="translate(-327.342 6494.831)" fill="#c9a989"/>
    <path id="Path_2186" data-name="Path 2186" d="M1458.673,53.931a.79.79,0,0,1-.82-.81.807.807,0,0,1,.815-.821.816.816,0,1,1,0,1.631" transform="translate(-442.852 6511.808)" fill="#c9a989"/>
  </g>
</svg>
