<svg xmlns="http://www.w3.org/2000/svg" width="14.015" height="13.72" viewBox="0 0 14.015 13.72">
  <g id="Group_3" data-name="Group 3" transform="translate(-981.034 -6561.689)">
    <path id="Path_2181" data-name="Path 2181" d="M941.953,92.737c0-.2,0-.351,0-.5,0-1.381,0-2.761-.007-4.142a6.38,6.38,0,0,0-.052-.855,1.413,1.413,0,0,0-1.82-1.359,1.325,1.325,0,0,0-1.2,1.02,4.285,4.285,0,0,0-.147.991c-.017,1.467-.01,2.935-.012,4.4,0,.122,0,.245,0,.355a15.662,15.662,0,0,1-2.841.036c-.072-.27-.109-8.583-.04-9.045a12.857,12.857,0,0,1,2.742-.023V84.7l.077.022c.052-.06.1-.119.155-.181a3.157,3.157,0,0,1,2.539-1.2,4.073,4.073,0,0,1,1.78.335,2.487,2.487,0,0,1,1.215,1.163,4.433,4.433,0,0,1,.461,1.756c.032.459.045.919.048,1.379.007,1.443.005,2.886.007,4.329,0,.123,0,.245,0,.423-.969.027-1.9,0-2.905.012" transform="translate(50.19 6482.671)" fill="#c9a989"/>
    <path id="Path_2182" data-name="Path 2182" d="M852.419,96.427V87.3c.942-.019,1.878-.009,2.87,0,.014,3.052.016,6.077.013,9.13Z" transform="translate(128.878 6478.948)" fill="#c9a989"/>
    <path id="Path_2183" data-name="Path 2183" d="M851.1,8.206a1.68,1.68,0,1,1-1.679-1.642A1.662,1.662,0,0,1,851.1,8.206" transform="translate(133.293 6555.125)" fill="#c9a989"/>
  </g>
</svg>
