<svg xmlns="http://www.w3.org/2000/svg" width="15.211" height="12.337" viewBox="0 0 15.211 12.337">
  <path id="Path_2180" data-name="Path 2180" d="M408.116,31.187a3.38,3.38,0,0,1-1.129,1.521l.045.075,1.459-.376a3.964,3.964,0,0,1-.767.939,1.261,1.261,0,0,1-.283.248.88.88,0,0,0-.411.846A8.852,8.852,0,0,1,404.7,40.3a8.582,8.582,0,0,1-6.451,2.88,9.093,9.093,0,0,1-4.861-1.271c-.028-.016-.045-.049-.107-.117a6.544,6.544,0,0,0,4.539-1.27,3.665,3.665,0,0,1-1.8-.662,3.137,3.137,0,0,1-1.08-1.48,4.61,4.61,0,0,0,1.252-.123,3.252,3.252,0,0,1-2.015-1.574,2.688,2.688,0,0,1-.356-1.436l1.238.345c-.009-.2-.141-.243-.222-.317a3.1,3.1,0,0,1-.685-3.662c.022-.044.053-.082.1-.161a9.161,9.161,0,0,0,6.461,3.206c0-.139.01-.248,0-.356a3.127,3.127,0,0,1,2.742-3.428,3.079,3.079,0,0,1,2.486.748.509.509,0,0,0,.574.128c.517-.19,1.039-.367,1.6-.563" transform="translate(-393.279 -30.849)" fill="#c9a989"/>
</svg>
